<svg width="364" height="364" viewBox="0 0 364 364" fill="none" xmlns="http://www.w3.org/2000/svg">
<path d="M181.901 121.506C215.318 121.506 242.495 94.3299 242.495 60.9129V15.4675C242.495 7.10525 235.708 0.319153 227.346 0.319153L136.455 0.319522C128.094 0.319522 121.307 7.10563 121.307 15.4675V60.9132C121.307 94.3303 148.484 121.506 181.901 121.506ZM151.604 30.6158H212.198V60.9129C212.198 77.6214 198.61 91.2096 181.901 91.2096C165.192 91.2096 151.604 77.6214 151.604 60.9129V30.6158Z" fill="black"/>
<path d="M272.791 136.655H91.0105C82.648 136.655 75.8618 143.441 75.8618 151.803V302.47C75.8618 310.833 82.648 317.619 91.0105 317.619C99.3724 317.619 106.158 310.833 106.158 302.47V166.952H257.643V302.47C257.643 310.833 264.429 317.619 272.791 317.619C281.154 317.619 287.94 310.833 287.94 302.47V151.803C287.94 143.441 281.154 136.655 272.791 136.655Z" fill="black"/>
<path fill-rule="evenodd" clip-rule="evenodd" d="M167.029 302.005V241.081H152.7C143.777 241.081 136.477 234.273 136.477 225.95C136.477 217.628 143.777 210.819 152.7 210.819H167.029V196.067C167.029 187.584 173.792 180.644 182.059 180.644C190.326 180.644 197.089 187.584 197.089 196.067V210.819H211.102C220.025 210.819 227.325 217.628 227.325 225.95C227.325 234.273 220.025 241.081 211.102 241.081H197.089V302.005C197.089 310.487 190.326 317.427 182.059 317.427C173.792 317.427 167.029 310.487 167.029 302.005Z" fill="black"/>
<path fill-rule="evenodd" clip-rule="evenodd" d="M15.6011 363.154H348.2C356.515 363.154 363.318 356.351 363.318 348.036C363.318 339.721 356.515 332.918 348.2 332.918H15.6011C7.28617 332.918 0.483398 339.721 0.483398 348.036C0.483398 356.351 7.28617 363.154 15.6011 363.154Z" fill="black" stroke="#332D2B" stroke-width="0.755906" stroke-miterlimit="22.9256"/>
<path fill-rule="evenodd" clip-rule="evenodd" d="M15.6015 272.445H45.8377C54.1527 272.445 60.9558 265.642 60.9558 257.327C60.9558 249.012 54.1527 242.209 45.8377 242.209H15.6015C7.28655 242.209 0.483398 249.012 0.483398 257.327C0.483398 265.642 7.28655 272.445 15.6015 272.445Z" fill="black" stroke="#332D2B" stroke-width="0.755906" stroke-miterlimit="22.9256"/>
<path fill-rule="evenodd" clip-rule="evenodd" d="M317.964 272.445H348.2C356.515 272.445 363.318 265.642 363.318 257.327C363.318 249.012 356.515 242.209 348.2 242.209H317.964C309.649 242.209 302.846 249.012 302.846 257.327C302.846 265.642 309.649 272.445 317.964 272.445Z" fill="black" stroke="#332D2B" stroke-width="0.755906" stroke-miterlimit="22.9256"/>
<path fill-rule="evenodd" clip-rule="evenodd" d="M15.6015 317.799H45.8377C54.1527 317.799 60.9558 310.996 60.9558 302.681C60.9558 294.366 54.1527 287.563 45.8377 287.563H15.6015C7.28655 287.563 0.483398 294.366 0.483398 302.681C0.483398 310.996 7.28655 317.799 15.6015 317.799Z" fill="black" stroke="#332D2B" stroke-width="0.755906" stroke-miterlimit="22.9256"/>
<path fill-rule="evenodd" clip-rule="evenodd" d="M317.964 317.799H348.2C356.515 317.799 363.318 310.996 363.318 302.681C363.318 294.366 356.515 287.563 348.2 287.563H317.964C309.649 287.563 302.846 294.366 302.846 302.681C302.846 310.996 309.649 317.799 317.964 317.799Z" fill="black" stroke="#332D2B" stroke-width="0.755906" stroke-miterlimit="22.9256"/>
</svg>
