<svg width="21" height="16" viewBox="0 0 21 16" fill="none" xmlns="http://www.w3.org/2000/svg">
<path d="M20.0428 1.77778H16.7192L16.3683 0.633778C16.3121 0.450593 16.1971 0.289991 16.0402 0.175817C15.8833 0.061644 15.6929 -1.32725e-05 15.4974 2.14305e-09H6.9519C6.75633 -1.32725e-05 6.56596 0.061644 6.40907 0.175817C6.25218 0.289991 6.13713 0.450593 6.081 0.633778L5.73009 1.77778H1.861C1.61989 1.77778 1.38866 1.87143 1.21817 2.03813C1.04768 2.20483 0.951904 2.43092 0.951904 2.66667V15.1111C0.951904 15.3469 1.04768 15.573 1.21817 15.7397C1.38866 15.9064 1.61989 16 1.861 16H20.0428C20.2839 16 20.5152 15.9064 20.6856 15.7397C20.8561 15.573 20.9519 15.3469 20.9519 15.1111V2.66667C20.9519 2.43092 20.8561 2.20483 20.6856 2.03813C20.5152 1.87143 20.2839 1.77778 20.0428 1.77778ZM19.1337 14.2222H2.77009V3.55556H6.40645C6.60203 3.55557 6.79239 3.49391 6.94928 3.37974C7.10618 3.26556 7.22123 3.10496 7.27736 2.92178L7.62827 1.77778H14.821L15.1719 2.92178C15.228 3.10496 15.3431 3.26556 15.5 3.37974C15.6569 3.49391 15.8472 3.55557 16.0428 3.55556H19.1337V14.2222ZM10.9519 3.55556C10.0529 3.55556 9.17408 3.81622 8.42659 4.30458C7.67909 4.79294 7.09649 5.48707 6.75245 6.29919C6.40842 7.1113 6.3184 8.00493 6.49379 8.86707C6.66918 9.72921 7.10209 10.5211 7.73778 11.1427C8.37348 11.7643 9.1834 12.1876 10.0651 12.359C10.9469 12.5305 11.8608 12.4425 12.6914 12.1061C13.5219 11.7697 14.2319 11.2001 14.7313 10.4692C15.2308 9.73832 15.4974 8.87903 15.4974 8C15.4959 6.82169 15.0166 5.69205 14.1644 4.85886C13.3123 4.02567 12.157 3.55697 10.9519 3.55556ZM10.9519 10.6667C10.4125 10.6667 9.88521 10.5103 9.43671 10.2173C8.98822 9.92423 8.63865 9.50776 8.43223 9.02049C8.22581 8.53322 8.1718 7.99704 8.27704 7.47976C8.38227 6.96248 8.64201 6.48732 9.02343 6.11438C9.40485 5.74144 9.8908 5.48747 10.4198 5.38457C10.9489 5.28168 11.4972 5.33449 11.9956 5.53632C12.4939 5.73815 12.9199 6.07995 13.2195 6.51848C13.5192 6.95701 13.6792 7.47258 13.6792 8C13.6792 8.70724 13.3918 9.38552 12.8804 9.88562C12.3689 10.3857 11.6752 10.6667 10.9519 10.6667Z" fill="#1694da"/>
</svg>
