<svg width="364" height="304" viewBox="0 0 364 304" fill="none" xmlns="http://www.w3.org/2000/svg">
<path d="M346.916 43.8269H271.881L265.514 12.3934C263.423 5.41597 257 0.634155 249.715 0.634155H113.581C106.296 0.634155 99.2268 5.2633 97.7831 12.3926L91.4157 43.8269H17.0667C7.95989 43.8269 0.574344 51.2181 0.574344 60.3192L0.573975 286.675C0.574353 295.782 7.95989 303.167 17.0667 303.167L346.916 303.168C356.023 303.168 363.409 295.782 363.409 286.675V60.3192C363.409 51.2125 356.01 43.8269 346.916 43.8269ZM332.314 272.451H30.913V76.812H103.686C103.686 76.8116 103.687 76.8117 103.687 76.8117C110.972 76.8117 117.979 72.1783 119.485 65.0531L126.608 31.3552H236.688L243.81 65.0528C245.901 72.0298 252.324 76.8117 259.609 76.8117L332.314 76.812V272.451Z" fill="black"/>
<path fill-rule="evenodd" clip-rule="evenodd" d="M181.991 91.6173C223.739 91.6173 257.582 125.46 257.582 167.208C257.582 208.955 223.739 242.798 181.991 242.798C140.244 242.798 106.401 208.955 106.401 167.208C106.401 125.46 140.244 91.6173 181.991 91.6173ZM181.991 121.854C207.04 121.854 227.346 142.159 227.346 167.208C227.346 192.256 207.04 212.562 181.991 212.562C156.943 212.562 136.637 192.256 136.637 167.208C136.637 142.159 156.943 121.854 181.991 121.854Z" fill="black"/>
</svg>
