<svg width="364" height="364" viewBox="0 0 364 364" fill="none" xmlns="http://www.w3.org/2000/svg">
<path d="M303.174 220.002V39.1051C303.174 26.2233 292.687 14.98 279.805 14.98L174.11 15.358C161.228 15.358 150.741 26.6009 150.741 39.483V120.729L84.0816 120.73C71.1999 120.73 60.7128 131.217 60.7128 144.099V325.004C60.7128 337.886 71.1999 348.751 84.0816 348.751H190.533C203.415 348.751 213.902 337.886 213.902 325.004V243.749L279.805 243.372C292.687 243.372 303.174 232.892 303.174 220.002ZM363.739 318.206V270.078C363.739 269.657 363.715 269.235 363.675 268.813C363.659 268.63 363.627 268.455 363.595 268.28C363.564 268.049 363.532 267.819 363.492 267.588C363.452 267.381 363.397 267.174 363.341 266.975C363.293 266.776 363.245 266.578 363.19 266.379C363.126 266.179 363.055 265.981 362.983 265.782C362.911 265.591 362.848 265.392 362.768 265.201C362.689 265.018 362.601 264.835 362.514 264.66C362.418 264.461 362.33 264.27 362.235 264.071C362.14 263.896 362.036 263.729 361.933 263.562C361.821 263.371 361.718 263.188 361.59 262.997C361.463 262.806 361.328 262.631 361.193 262.456C361.081 262.305 360.978 262.145 360.85 262.003C360.317 261.35 359.721 260.762 359.076 260.228C358.933 260.109 358.774 260.005 358.623 259.886C358.44 259.751 358.265 259.608 358.074 259.48C357.891 259.361 357.708 259.257 357.516 259.146C357.341 259.043 357.174 258.939 356.999 258.844C356.809 258.741 356.618 258.661 356.419 258.565C356.236 258.478 356.053 258.39 355.869 258.31C355.678 258.231 355.488 258.168 355.296 258.104C355.098 258.032 354.899 257.953 354.692 257.889C354.501 257.834 354.31 257.786 354.119 257.738C353.912 257.682 353.697 257.626 353.49 257.587C353.267 257.539 353.045 257.515 352.822 257.484C352.631 257.46 352.448 257.42 352.257 257.404C351.843 257.364 351.421 257.34 351 257.34L303.239 257.34C296.205 257.34 288.24 265.681 288.24 272.715C288.24 279.749 296.205 287.712 303.239 287.712L312.13 288.001L260.776 339.098C255.803 344.071 257.139 354.538 262.112 359.511C267.084 364.484 277.016 365.285 281.989 360.312L333.351 308.026L333.371 318.206C333.371 325.24 341.336 332.827 348.37 332.827C355.403 332.827 363.739 325.24 363.739 318.206ZM0.904053 46.2907V94.418C0.904053 94.8394 0.927862 95.2613 0.967925 95.6831C0.983799 95.866 1.01555 96.0409 1.04729 96.2159C1.07904 96.4469 1.11117 96.6774 1.15047 96.9084C1.19054 97.1151 1.2461 97.3222 1.30166 97.5211C1.34966 97.7199 1.39728 97.9186 1.45284 98.1178C1.51671 98.317 1.58815 98.5158 1.65958 98.7146C1.73139 98.9054 1.79488 99.1046 1.87463 99.2955C1.954 99.4784 2.04169 99.6618 2.12899 99.8365C2.22462 100.036 2.3123 100.226 2.40755 100.425C2.50317 100.601 2.60673 100.768 2.70991 100.935C2.8214 101.126 2.92496 101.309 3.05233 101.499C3.17933 101.69 3.31463 101.866 3.44994 102.041C3.56144 102.191 3.66499 102.351 3.79236 102.494C4.32528 103.147 4.92207 103.735 5.56648 104.268C5.70972 104.388 5.86884 104.491 6.02002 104.61C6.20295 104.746 6.37794 104.889 6.56919 105.016C6.75212 105.136 6.93505 105.239 7.12629 105.35C7.30128 105.453 7.46833 105.557 7.64333 105.653C7.83419 105.756 8.02506 105.836 8.22424 105.931C8.40717 106.019 8.5901 106.106 8.77341 106.186C8.96427 106.265 9.15514 106.329 9.34638 106.393C9.54519 106.464 9.74399 106.544 9.95111 106.607C10.142 106.663 10.3328 106.711 10.5241 106.759C10.7308 106.814 10.9455 106.87 11.1526 106.91C11.3756 106.957 11.5982 106.981 11.8208 107.013C12.0121 107.037 12.195 107.077 12.3859 107.093C12.7997 107.132 13.2215 107.156 13.6429 107.156L61.4041 107.157C68.4378 107.157 76.4028 98.8152 76.4028 91.7815C76.4028 84.7474 68.4378 76.7838 61.4041 76.7838L52.5124 76.4955L103.867 25.3982C108.84 20.4255 107.504 9.95854 102.531 4.98582C97.5583 0.0127126 87.6268 -0.788583 82.6537 4.18414L31.2922 56.4708L31.2722 46.2907C31.2722 39.2567 23.3068 31.6696 16.2731 31.6696C9.23942 31.6696 0.904053 39.257 0.904053 46.2907ZM182.015 317.997H91.844V152.238H163.472H182.015V231.018V317.997ZM272.421 211.862L213.902 212.24V144.098C213.902 131.217 202.659 120.729 189.777 120.729L182.629 120.73V46.4892L272.421 46.1115V211.862Z" fill="black"/>
</svg>
