<svg width="103" height="115" viewBox="0 0 103 115" fill="none" xmlns="http://www.w3.org/2000/svg">
<path d="M85.7155 69.3791V12.851C85.7155 8.82505 82.4394 5.54858 78.4135 5.54858H48.8099C44.784 5.54858 41.5079 8.82505 41.5079 12.851V38.2396H24.3386C20.3123 38.2396 17.0362 41.5157 17.0362 45.542V102.074C17.0362 106.101 20.3123 109.377 24.3386 109.377H53.9418C57.9681 109.377 61.2442 106.101 61.2442 102.074V76.6815H78.4135C82.4394 76.6815 85.7155 73.4073 85.7155 69.3791ZM53.2883 101.419H24.9921V46.1955H53.2883V101.419ZM77.76 68.7256H61.2442V45.542C61.2442 41.5157 57.9681 38.2396 53.9418 38.2396H49.4638V13.5045H77.76V68.7256Z" fill="#1694da"/>
<path d="M98.773 101.001C100.972 101.001 102.75 99.2204 102.75 97.0222V83.8702C102.75 83.7395 102.743 83.6087 102.731 83.4761C102.726 83.4182 102.716 83.3646 102.705 83.309C102.697 83.2361 102.686 83.1654 102.673 83.0924C102.662 83.0282 102.643 82.9639 102.626 82.9019C102.611 82.8396 102.596 82.7776 102.579 82.7152C102.559 82.6532 102.538 82.5912 102.514 82.5289C102.493 82.4688 102.471 82.4068 102.448 82.3467C102.422 82.2889 102.394 82.2333 102.369 82.1774C102.339 82.1154 102.311 82.0553 102.281 81.9933C102.251 81.9397 102.218 81.886 102.186 81.8346C102.152 81.7749 102.12 81.7171 102.079 81.6589C102.041 81.5991 101.998 81.5432 101.955 81.4899C101.921 81.4427 101.889 81.3932 101.848 81.3482C101.681 81.1426 101.494 80.9604 101.293 80.7933C101.246 80.7548 101.199 80.7226 101.151 80.6864C101.096 80.6433 101.04 80.5983 100.98 80.562C100.922 80.5235 100.865 80.4891 100.807 80.4547C100.755 80.4226 100.702 80.3905 100.648 80.3606C100.588 80.3285 100.526 80.3005 100.466 80.2729C100.408 80.2468 100.354 80.2192 100.295 80.1935C100.235 80.1697 100.174 80.1486 100.114 80.1293C100.052 80.1055 99.9904 80.082 99.9281 80.065C99.8702 80.0476 99.806 80.0329 99.7482 80.0178C99.6816 80.0008 99.6174 79.9834 99.5531 79.9705C99.4847 79.9554 99.4118 79.9471 99.3411 79.9384C99.2852 79.9297 99.2273 79.9169 99.1695 79.9127C99.0387 79.8998 98.9102 79.8934 98.7776 79.8934H85.6256C83.4293 79.8934 81.6488 81.674 81.6488 83.8702C81.6488 86.0688 83.4293 87.8493 85.6256 87.8493H89.1696L69.6563 107.363C68.1029 108.918 68.1029 111.436 69.6563 112.989C70.4319 113.765 71.452 114.157 72.4675 114.157C73.4853 114.157 74.5051 113.767 75.281 112.989L94.7943 93.4759V97.0241C94.7943 99.2204 96.5771 101.001 98.773 101.001Z" fill="#1694da"/>
<path d="M0 17.9035V31.0532C0 31.1858 0.00831718 31.3166 0.0211676 31.4493C0.025703 31.5052 0.0362812 31.5608 0.0449742 31.6167C0.0555568 31.6874 0.0661432 31.76 0.0771038 31.8329C0.0899542 31.8972 0.106955 31.9614 0.12623 32.0238C0.139081 32.0858 0.154199 32.1481 0.173474 32.2101C0.19275 32.2721 0.213923 32.3344 0.237734 32.3964C0.258899 32.4565 0.278544 32.5185 0.304245 32.5786C0.329945 32.6346 0.35564 32.6924 0.383231 32.748C0.413467 32.8099 0.441061 32.8677 0.471297 32.9301C0.501155 32.9857 0.53329 33.0371 0.565416 33.0907C0.59981 33.1508 0.63193 33.2064 0.672749 33.2665C0.7113 33.3266 0.754019 33.3799 0.796727 33.4358C0.831121 33.483 0.863241 33.5322 0.90406 33.5772C1.06885 33.7809 1.25745 33.9649 1.4589 34.132C1.50199 34.1686 1.55338 34.2008 1.60025 34.2394C1.65618 34.2821 1.71174 34.3251 1.77184 34.3656C1.8274 34.4022 1.88522 34.4343 1.94531 34.4706C1.99898 34.5028 2.05265 34.5349 2.10594 34.5648C2.16604 34.5969 2.22614 34.623 2.28813 34.6506C2.34595 34.6785 2.40189 34.7065 2.45972 34.7322C2.51944 34.7556 2.57952 34.7749 2.63962 34.7964C2.7016 34.8176 2.76397 34.8433 2.82822 34.8626C2.88832 34.88 2.94802 34.8951 3.00585 34.9098C3.07237 34.9272 3.1389 34.9442 3.20315 34.9571C3.27383 34.9722 3.34224 34.9805 3.41329 34.9892C3.47112 34.9979 3.52893 35.0107 3.58865 35.0149C3.71753 35.0277 3.85021 35.0342 3.98098 35.0342H17.1349C19.3334 35.0342 21.1139 33.2537 21.1139 31.0551C21.1139 28.8588 19.3334 27.0783 17.1349 27.0783H13.5821L33.0958 7.56493C34.6492 6.00928 34.6492 3.49173 33.0958 1.93835C31.5424 0.382693 29.0226 0.382693 27.4688 1.93835L7.95552 21.4517V17.9035C7.95552 15.7049 6.17498 13.9244 3.97681 13.9244C1.77826 13.9244 0 15.7049 0 17.9035Z" fill="#1694da"/>
</svg>
