<svg width="106" height="116" viewBox="0 0 106 116" fill="none" xmlns="http://www.w3.org/2000/svg">
<path fill-rule="evenodd" clip-rule="evenodd" d="M27.2289 47.6589H53.2664L53.2702 100.637H27.1865L27.2289 47.6589ZM94.5438 96.744C95.181 97.8631 94.7902 98.8893 95.9082 100.443C96.5564 101.344 97.4411 102.019 98.9004 102.293C103.839 103.22 104.948 99.1342 105.106 94.9536V92.3223C105.066 90.925 104.985 89.6434 104.985 88.6883C104.985 79.4183 104.256 79.0981 94.8665 79.0985C92.4896 79.0985 87.5206 78.843 85.53 79.3374C81.1332 80.4289 80.5697 85.9988 83.7479 88.2843C84.8678 89.0893 85.8286 89.1362 87.4039 89.4276C83.6633 92.7252 79.7662 97.015 76.1197 100.661C72.9094 103.872 65.2373 109.535 70.0619 114.134C72.7113 116.66 75.7006 115.528 77.7517 113.495C82.8987 108.393 89.655 101.161 94.5438 96.744ZM28.8541 14.9958C32.3728 11.4767 39.5996 6.27567 34.893 1.46887C30.5299 -2.98681 25.6585 3.73964 21.628 7.77013C19.6834 9.71469 17.9747 11.4261 16.0271 13.3688C14.493 14.8995 12.1871 17.569 10.3865 18.7803C9.61966 17.4438 10.1824 16.2643 8.76247 14.7895C6.11642 12.0414 0 12.5198 0 19.2482V30.4484C0 34.5802 1.79642 36.5074 5.90666 36.5074C9.85324 36.5074 13.7998 36.5074 17.7464 36.5074H17.4266C20.7557 36.5074 23.2558 34.7643 23.2645 31.408C23.274 27.5847 20.7005 26.8885 17.5778 26.1367L28.8541 14.9958ZM51.7021 15.0185L77.7585 14.9618V67.9395H63.5063C63.4938 60.9114 63.6185 53.7723 63.4965 46.7582C63.433 43.1341 62.2949 41.0016 60.3349 39.3738C57.6408 37.1363 55.5073 37.5811 51.7372 37.4175L51.7021 15.0185ZM63.5131 78.1465C68.8411 78.1465 80.4068 79.1155 84.1712 76.7144C89.3477 73.413 87.9474 65.7931 87.9474 58.2881C87.9474 43.5959 88.1178 28.8047 87.9515 14.1254C87.8506 5.22765 81.7308 4.76841 75.0263 4.76917C67.6668 4.76992 60.3061 4.77977 52.9463 4.76843C45.1903 4.75671 41.4803 6.81539 41.4977 15.4029C41.5121 22.5046 41.8231 30.4488 41.4546 37.4534C36.1278 37.4534 24.5265 36.4738 20.7863 38.9225C15.6442 42.2886 17.0343 49.8102 17.0343 57.3284C17.0343 72.0214 16.8639 86.8129 17.0298 101.493C17.1383 111.085 24.2759 110.835 29.9067 110.834C37.2662 110.833 44.6268 110.824 51.9867 110.835C59.6383 110.846 63.5157 108.9 63.4968 100.209C63.4813 92.9032 63.3528 85.4349 63.5131 78.1465Z" fill="#1694da"/>
</svg>
