<svg width="315" height="106" viewBox="0 0 315 106" fill="none" xmlns="http://www.w3.org/2000/svg">
<path d="M37.8274 105.089C29.0363 105.089 21.9058 103.501 16.4603 100.302C10.9901 97.1277 7.03412 92.8055 4.54342 87.2866C2.0769 81.7923 0.831543 75.6385 0.831543 68.8255C0.831543 58.7402 2.34561 49.7782 5.37377 41.9149C8.40155 34.0274 12.6505 27.3852 18.096 21.9151C23.5662 16.4696 29.9154 12.3427 37.1925 9.53452C44.445 6.70177 52.2838 5.31016 60.7083 5.31016C65.5681 5.31016 69.3529 5.70062 72.0881 6.53098C74.7984 7.33678 76.9474 8.19166 78.559 9.04621C80.1464 9.92533 81.5872 10.3649 82.8813 10.3649C84.2979 10.3649 85.4211 9.82748 86.2511 8.80209C87.0573 7.75214 87.8386 6.60424 88.571 5.35888H94.1145L86.764 40.4742H80.7326C80.8056 31.0972 78.9744 24.0888 75.2138 19.4978C71.4532 14.9068 66.0076 12.6114 58.828 12.6114C52.7967 12.6114 47.3753 13.9789 42.5889 16.6896C37.7783 19.4002 33.7002 23.1851 30.3304 27.9957C26.9851 32.8308 24.4211 38.3984 22.6383 44.7231C20.88 51.0478 20.0009 57.8119 20.0009 65.0649C20.0009 74.9548 22.2475 82.0119 26.7164 86.2366C31.2095 90.4856 37.8029 92.6101 46.472 92.6101C50.9163 92.6101 54.9211 92.0726 58.5597 90.9985C62.1978 89.924 65.641 88.3365 68.8891 86.2121C72.1611 84.0876 75.4334 81.4748 78.7303 78.4221L82.0022 82.0606C78.5103 86.09 74.6763 89.8506 70.5495 93.3671C66.4226 96.9078 61.7095 99.7405 56.4106 101.865C51.1114 104.014 44.9088 105.089 37.8274 105.089ZM94.3314 104.966C90.0337 104.966 87.0788 104.136 85.4427 102.451C83.782 100.742 82.9762 98.6418 82.9762 96.1019C82.9762 94.3195 83.1716 92.2439 83.5624 89.8507C83.9532 87.4575 84.4169 84.9422 84.9298 82.2806L98.507 15.5905C98.507 15.5905 98.5803 15.0779 98.727 14.0767C98.8733 13.0756 98.9466 11.9765 98.9466 10.8044C98.9466 9.82742 98.6782 8.87542 98.1408 7.92298C97.6037 6.97054 96.3583 6.5064 94.4047 6.5064C93.1348 6.5064 92.0115 6.55549 91.0349 6.653C90.0824 6.75089 89.5941 6.79968 89.5941 6.79968V1.69577L113.598 0.0842285H118.58L101.877 84.8688C101.804 85.3084 101.657 86.2854 101.413 87.8237C101.169 89.3378 101.047 90.5344 101.047 91.3889C101.047 92.3659 101.34 93.0742 101.926 93.5134C102.512 93.953 103.22 94.1729 104.099 94.1729C106.59 94.1729 108.69 93.2938 110.375 91.5601C112.085 89.8019 113.525 88.2878 114.697 87.0179L118.629 89.9727C117.041 92.3171 115.234 94.637 113.208 96.9323C111.205 99.2276 108.69 101.157 105.687 102.671C102.707 104.209 98.9224 104.966 94.3314 104.966ZM130.152 105.406C126.587 105.406 123.266 104.576 120.213 102.891C117.161 101.23 114.694 98.4706 112.839 94.6858C110.982 90.8764 110.055 85.8213 110.055 79.4966C110.055 72.7811 111.129 66.5786 113.229 60.938C115.353 55.2725 118.186 50.364 121.776 46.1638C125.366 41.9636 129.468 38.7404 134.035 36.4451C138.626 34.1494 143.363 33.0016 148.223 33.0016C152.545 33.0016 155.793 33.832 157.942 35.4439C160.09 37.0555 161.971 38.9113 163.533 40.9625H164.29L169.883 34.1253H180.237L169.663 84.698C169.663 84.698 169.541 85.333 169.296 86.5541C169.052 87.7995 168.93 88.947 168.93 90.0215C168.93 90.9985 169.15 91.853 169.565 92.5855C169.98 93.2938 170.884 93.66 172.276 93.66C173.717 93.66 175.011 93.2938 176.159 92.5367C177.306 91.8042 178.356 90.9006 179.333 89.8261C180.31 88.7761 181.14 87.7749 181.848 86.8716L185.902 89.9973C184.461 92.2193 182.776 94.4904 180.822 96.8102C178.869 99.1543 176.403 101.108 173.423 102.671C170.469 104.234 166.781 105.039 162.41 105.039C159.114 105.039 156.623 104.429 154.913 103.208C153.229 101.987 152.374 99.8384 152.374 96.7615C152.374 96.0532 152.423 95.3207 152.496 94.5637C152.594 93.8067 152.691 93.0251 152.789 92.2193H151.714C148.54 96.4195 145.268 99.6672 141.873 101.963C138.503 104.258 134.596 105.406 130.152 105.406ZM137.38 94.1729C140.091 94.1729 142.508 93.4646 144.584 92.0239C146.684 90.6077 148.515 88.5565 150.078 85.8458C151.666 83.1597 152.936 79.9608 153.937 76.2735C154.498 74.1977 155.084 71.7557 155.695 68.9963C156.305 66.2123 156.818 63.4042 157.258 60.5226C157.722 57.6657 157.942 55.1258 157.942 52.9039C157.942 49.1432 157.16 45.9197 155.646 43.2336C154.108 40.572 151.617 39.2288 148.174 39.2288C145.097 39.2288 142.337 40.3279 139.871 42.5499C137.404 44.7722 135.304 47.7512 133.571 51.4873C131.813 55.2479 130.494 59.4239 129.59 64.0391C128.687 68.6543 128.223 73.3674 128.223 78.1538C128.223 84.4539 129.053 88.7028 130.665 90.8764C132.301 93.0742 134.523 94.1729 137.38 94.1729ZM191.833 104.966C188.097 104.966 185.337 104.185 183.53 102.573C181.747 100.986 180.844 98.9102 180.844 96.3707C180.844 95.1008 180.99 93.5625 181.308 91.7555C181.625 89.9239 182.26 86.8716 183.237 82.5735L190.343 49.192C190.343 49.192 190.441 48.7037 190.612 47.7266C190.783 46.75 190.881 45.7001 190.881 44.5522C190.881 43.5756 190.563 42.6232 189.952 41.7441C189.342 40.8404 188.048 40.4008 186.094 40.4008C184.824 40.4008 183.701 40.45 182.749 40.5475C181.772 40.645 181.308 40.6941 181.308 40.6941V35.2485L204.775 33.6366H210.782L199.867 85.2354C199.867 85.2354 199.745 85.9925 199.476 87.5062C199.183 89.0203 199.061 90.3148 199.061 91.3889C199.061 93.245 199.965 94.1729 201.772 94.1729C204.311 94.1729 206.46 93.2938 208.194 91.5601C209.927 89.8019 211.393 88.2878 212.565 87.0179L216.521 89.9727C214.861 92.3171 213.029 94.637 211.051 96.9323C209.049 99.2276 206.558 101.133 203.579 102.622C200.575 104.136 196.668 104.917 191.833 104.966ZM204.018 23.2096C200.941 23.2096 198.475 22.306 196.594 20.4744C194.739 18.6432 193.811 16.1767 193.811 13.0756C193.811 9.97414 194.714 7.50755 196.546 5.6518C198.377 3.82024 200.917 2.89237 204.164 2.89237C207.535 2.89237 210.099 3.82024 211.857 5.6518C213.591 7.48336 214.47 9.92531 214.47 12.9777C214.47 16.1033 213.566 18.5944 211.71 20.4502C209.879 22.2818 207.315 23.2096 204.018 23.2096ZM229.851 90.8518L236.127 63.6483C237.08 61.768 238.056 59.5215 239.131 56.8841C240.181 54.2713 241.377 51.5852 242.696 48.85C244.039 46.0909 245.577 43.5511 247.336 41.1579C249.069 38.7647 251.096 36.8602 253.367 35.3948C255.638 33.9299 258.276 33.197 261.279 33.197C264.087 33.197 266.383 34.0032 268.19 35.5902C269.997 37.2018 270.925 39.6929 270.925 43.0869C270.925 46.5546 269.948 49.192 267.995 50.999C266.041 52.806 263.892 53.7097 261.572 53.7097C259.716 53.7097 258.276 53.1968 257.274 52.171C256.298 51.1456 255.614 50.1444 255.248 49.1432C254.906 48.142 254.613 47.6291 254.417 47.6291C252.708 47.6291 250.876 48.777 248.923 51.0723C246.969 53.3921 245.04 56.347 243.16 59.9368C241.255 63.5508 239.448 67.3602 237.739 71.3404C236.005 75.3456 234.466 79.1058 233.099 82.6223C231.707 86.1388 230.633 88.8982 229.851 90.8518ZM228.484 103.379H210.486L221.329 53.783C221.622 52.2935 221.915 50.7061 222.208 49.0699C222.501 47.4338 222.647 45.9684 222.647 44.6989C222.647 43.3315 222.33 42.2569 221.72 41.4753C221.109 40.6941 219.791 40.3033 217.812 40.3033C217.031 40.3033 216.079 40.3521 214.955 40.45C213.832 40.5475 213.27 40.5962 213.27 40.5962V35.2485L235.566 33.6366H241.475L235.126 62.0122H237.348L228.484 103.379ZM279.201 105.406C273.218 105.406 268.407 104.209 264.744 101.767C261.106 99.3497 258.468 96.102 256.808 92.0726C255.171 88.0436 254.341 83.5993 254.341 78.7642C254.341 73.172 255.294 67.6776 257.223 62.2563C259.127 56.8353 261.887 51.9027 265.525 47.4583C269.164 43.0382 273.535 39.4975 278.688 36.8601C283.816 34.2228 289.603 32.9287 296.05 32.9287C298.712 32.9287 301.398 33.2704 304.182 33.9299C306.941 34.6136 309.285 35.9811 311.239 38.008C313.168 40.0346 314.145 43.0627 314.145 47.1162C314.145 51.9268 312.704 56.0537 309.823 59.4481C306.965 62.8425 303.278 65.6265 298.785 67.7752C294.292 69.9242 289.579 71.5358 284.597 72.6349C279.64 73.7336 275.074 74.4173 270.898 74.7106V69.4359C275.635 69.2405 279.933 68.1905 283.767 66.2615C287.601 64.332 290.653 61.7193 292.973 58.3736C295.293 55.0284 296.465 51.0968 296.465 46.6279C296.465 44.3081 296.074 42.5011 295.293 41.2312C294.511 39.9613 293.193 39.3021 291.312 39.3021C288.724 39.3021 286.258 40.4741 283.938 42.7698C281.618 45.0897 279.567 48.0933 277.809 51.8048C276.05 55.5166 274.658 59.546 273.633 63.8925C272.632 68.2393 272.119 72.4395 272.119 76.5176C272.119 83.2572 273.462 87.8728 276.124 90.3148C278.81 92.7809 282.35 94.0021 286.746 94.0021C290.629 94.0021 294.194 93.1963 297.369 91.6089C300.568 89.9973 303.595 87.4574 306.428 83.9409L310.091 86.8716C305.745 93.7821 300.934 98.5927 295.611 101.328C290.287 104.063 284.817 105.406 279.201 105.406Z" fill="#332D2B"/>
</svg>
