<svg width="364" height="364" viewBox="0 0 364 364" fill="none" xmlns="http://www.w3.org/2000/svg">
<path d="M83.3296 121.203C116.679 121.203 143.802 94.0812 143.802 60.731V15.3761C143.802 7.03087 137.029 0.258545 128.684 0.258545H37.9749C29.6301 0.258545 22.8571 7.03087 22.8571 15.3761V60.731C22.8571 94.0812 49.9779 121.203 83.3296 121.203ZM19.4553 143.881H147.959C158.353 143.881 166.857 152.385 166.857 162.778V344.196C166.857 354.589 158.353 363.093 147.959 363.093H19.4553C9.06155 363.093 0.557617 354.589 0.557617 344.196V162.778C0.557617 152.385 9.06155 143.881 19.4553 143.881ZM279.865 121.203C313.215 121.203 340.337 94.0812 340.337 60.731V15.3761C340.337 7.03087 333.565 0.258545 325.22 0.258545H234.51C226.165 0.258545 219.393 7.03087 219.393 15.3761V60.731C219.393 94.0812 246.513 121.203 279.865 121.203ZM215.613 143.881H344.117C354.51 143.881 363.014 152.385 363.014 162.778V344.196C363.014 354.589 354.51 363.093 344.117 363.093H215.613C205.219 363.093 196.715 354.589 196.715 344.196V162.778C196.715 152.385 205.219 143.881 215.613 143.881Z" fill="black"/>
</svg>
