<svg width="331" height="363" viewBox="0 0 331 363" fill="none" xmlns="http://www.w3.org/2000/svg">
<path d="M320.559 67.5186L172.097 1.5351C169.991 0.599665 167.705 0.11438 165.399 0.11438C163.094 0.11438 160.808 0.599683 158.701 1.53436L10.2392 67.5174C4.2823 70.1638 0.441895 76.0746 0.441895 82.5931V82.5955V94.1422C0.478934 204.967 60.5598 307.052 157.39 360.872C159.843 362.234 162.602 362.949 165.399 362.949C168.197 362.949 170.956 362.234 173.401 360.879C270.239 307.052 330.32 204.967 330.358 94.1604L330.357 82.5955V82.5931C330.357 76.0746 326.517 70.1638 320.56 67.5174L320.559 67.5186ZM297.366 94.1422C297.333 189.666 247.202 278.193 165.39 327.393C83.5975 278.193 33.4667 189.666 33.4334 94.1582L33.433 93.3175L165.399 34.659L297.366 93.3175V94.1422Z" fill="black"/>
<path fill-rule="evenodd" clip-rule="evenodd" d="M150.528 241.871V166.585H121.081C112.158 166.585 104.857 159.776 104.857 151.454C104.857 143.131 112.158 136.323 121.081 136.323H150.528V106.83C150.528 98.3481 157.291 91.4081 165.558 91.4081C173.825 91.4081 180.588 98.3481 180.588 106.83V136.323H209.719C218.642 136.323 225.943 143.131 225.943 151.454C225.943 159.776 218.642 166.585 209.719 166.585H180.588V241.871C180.588 250.353 173.825 257.293 165.558 257.293C157.291 257.293 150.528 250.353 150.528 241.871Z" fill="black"/>
</svg>
