<svg width="129" height="136" viewBox="0 0 129 136" fill="none" xmlns="http://www.w3.org/2000/svg">
<path fill-rule="evenodd" clip-rule="evenodd" d="M64.604 0.783691C67.3494 0.783691 69.6553 3.08997 69.6553 5.83541V52.0666C69.6553 54.9217 67.3494 57.1183 64.604 57.1183C61.8586 57.1183 59.5523 54.9217 59.5523 52.0666V5.83541C59.5523 3.08997 61.8586 0.783691 64.604 0.783691Z" fill="#E6232A"/>
<path fill-rule="evenodd" clip-rule="evenodd" d="M25.0705 13.7421C27.2668 12.095 30.4515 12.5342 32.0989 14.8405L59.2227 52.1773C60.8702 54.4835 60.321 57.6682 58.1248 59.2057C55.9281 60.8532 52.7435 60.4136 51.0964 58.1077L23.8626 20.6606C22.3251 18.4643 22.7643 15.2796 25.0705 13.7421Z" fill="#A72186"/>
<path fill-rule="evenodd" clip-rule="evenodd" d="M0.582206 47.3455C1.35096 44.7096 4.20602 43.2821 6.84186 44.1605L50.8768 58.4369C53.5122 59.3156 54.9398 62.1707 54.0614 64.8065C53.2926 67.442 50.4372 68.8699 47.8017 67.9911L3.76685 53.7147C1.13138 52.8364 -0.296534 49.9809 0.582206 47.3455Z" fill="#2F318B"/>
<path fill-rule="evenodd" clip-rule="evenodd" d="M1.40839 88.9641C0.530025 86.4382 1.95754 83.5832 4.59301 82.7044L48.6279 68.428C51.1538 67.5497 54.0092 68.9772 54.8876 71.613C55.7663 74.2485 54.3384 77.1039 51.7029 77.9823L7.66803 92.2587C5.03256 93.1374 2.17714 91.5999 1.40839 88.9641Z" fill="#008FD7"/>
<path fill-rule="evenodd" clip-rule="evenodd" d="M25.0705 122.677C22.7643 121.03 22.3251 117.955 23.8626 115.649L51.0964 78.2021C52.7435 76.0058 55.9281 75.5666 58.1248 77.1041C60.321 78.7513 60.8702 81.9359 59.2227 84.1325L32.0989 121.579C30.4515 123.776 27.2668 124.325 25.0705 122.677Z" fill="#57ABB7"/>
<path fill-rule="evenodd" clip-rule="evenodd" d="M64.604 135.525C61.8586 135.525 59.5523 133.329 59.5523 130.583V84.242C59.5523 81.4966 61.8586 79.3003 64.604 79.3003C67.3494 79.3003 69.6553 81.4966 69.6553 84.242V130.583C69.6553 133.329 67.3494 135.525 64.604 135.525Z" fill="#009C4D"/>
<path fill-rule="evenodd" clip-rule="evenodd" d="M104.246 122.677C101.94 124.325 98.865 123.776 97.2175 121.579L69.9838 84.1325C68.3367 81.9359 68.8858 78.7513 71.0821 77.1041C73.3884 75.5666 76.573 76.0058 78.1105 78.2021L105.344 115.649C106.991 117.955 106.442 121.03 104.246 122.677Z" fill="#ADCE24"/>
<path fill-rule="evenodd" clip-rule="evenodd" d="M128.735 88.9641C127.857 91.5999 125.002 93.1374 122.366 92.2587L78.3312 77.9823C75.6954 77.1039 74.2679 74.2485 75.1462 71.613C76.025 68.9772 78.8804 67.5497 81.5159 68.428L125.441 82.7044C128.077 83.5832 129.504 86.4382 128.735 88.9641Z" fill="#FFF100"/>
<path fill-rule="evenodd" clip-rule="evenodd" d="M128.735 47.3455C129.504 49.9809 128.077 52.8364 125.441 53.7147L81.5159 67.9911C78.8804 68.8699 76.025 67.442 75.1462 64.8065C74.2679 62.1707 75.6954 59.3156 78.3312 58.4369L122.366 44.1605C125.002 43.2821 127.857 44.7096 128.735 47.3455Z" fill="#FDD100"/>
<path fill-rule="evenodd" clip-rule="evenodd" d="M104.246 13.7421C106.442 15.2796 106.991 18.4643 105.344 20.6606L78.1105 58.1077C76.573 60.4136 73.3884 60.8532 71.0821 59.2057C68.8858 57.6682 68.3367 54.4835 69.9838 52.1773L97.2175 14.8405C98.865 12.5342 101.94 12.095 104.246 13.7421Z" fill="#F0861B"/>
</svg>
