<svg width="303" height="364" viewBox="0 0 303 364" fill="none" xmlns="http://www.w3.org/2000/svg">
<path d="M243.121 211.848H60.6602C52.3109 211.848 45.5425 218.617 45.5425 226.966C45.5425 235.316 52.3109 242.084 60.6602 242.084H243.121C251.47 242.084 258.238 235.316 258.238 226.966C258.238 218.617 251.47 211.848 243.121 211.848Z" fill="black"/>
<path d="M226.96 181.612H242.078C250.427 181.612 257.195 174.844 257.195 166.494C257.195 158.145 250.427 151.376 242.078 151.376H226.96C218.61 151.376 211.842 158.145 211.842 166.494C211.841 174.844 218.61 181.612 226.96 181.612Z" fill="black"/>
<path d="M226.96 121.14H242.078C250.427 121.14 257.195 114.372 257.195 106.022C257.195 97.6726 250.427 90.9042 242.078 90.9042H226.96C218.61 90.9042 211.842 97.6726 211.842 106.022C211.841 114.371 218.61 121.14 226.96 121.14Z" fill="black"/>
<path d="M150.855 272.321H60.6602C52.3109 272.321 45.5425 279.089 45.5425 287.439C45.5425 295.788 52.3109 302.557 60.6602 302.557H150.855C159.205 302.557 165.973 295.788 165.973 287.439C165.973 279.089 159.205 272.321 150.855 272.321Z" fill="black"/>
<path d="M242.078 272.321H196.723C188.374 272.321 181.605 279.089 181.605 287.439C181.605 295.788 188.374 302.557 196.723 302.557H242.078C250.427 302.557 257.195 295.788 257.195 287.439C257.195 279.089 250.427 272.321 242.078 272.321Z" fill="black"/>
<path d="M287.432 30.4314H196.723V15.3129C196.723 6.9632 189.955 0.194824 181.605 0.194824H60.6603C52.3109 0.194824 45.5426 6.9632 45.5426 15.3129V30.4307H15.306C6.95662 30.4307 0.188232 37.1991 0.188232 45.5484V347.911C0.188232 356.261 6.95662 363.029 15.306 363.029H287.432C295.781 363.029 302.55 356.261 302.55 347.911V45.5492C302.55 37.1998 295.781 30.4314 287.432 30.4314ZM75.778 30.4314H166.487V45.5492V136.258L130.203 109.045C124.828 105.014 117.437 105.014 112.061 109.045L75.778 136.258V45.5492V30.4314ZM272.314 332.793H30.4241V60.6669H45.5418V166.494C45.5418 178.952 59.7645 186.063 69.7304 178.588L121.132 140.037L172.533 178.588C182.5 186.063 196.723 178.952 196.723 166.494V60.6669H272.314V332.793Z" fill="black"/>
</svg>
