<svg width="364" height="364" viewBox="0 0 364 364" fill="none" xmlns="http://www.w3.org/2000/svg">
<path d="M163.216 61.1295C156.655 61.1295 151.334 66.4567 151.334 73.0111V215.594C151.334 222.155 156.655 227.476 163.217 227.476H252.167L298.87 270.133C300.977 271.82 303.596 272.739 306.296 272.739C312.857 272.739 318.178 267.419 318.178 260.857C318.178 260.856 318.178 260.855 318.178 260.853V227.476H351.392C357.953 227.476 363.274 222.155 363.274 215.594V73.0111C363.274 66.4502 357.947 61.1295 351.392 61.1295H163.216ZM332.706 196.908H306.296C299.735 196.908 294.414 202.235 294.414 208.79V226.678L263.763 199.51C261.659 197.827 259.039 196.908 256.343 196.908C256.341 196.908 256.337 196.908 256.337 196.908H181.522V91.3176H332.706V196.908Z" fill="black"/>
<path d="M241.856 291.209V148.629C241.856 142.068 236.53 136.768 229.974 136.768H12.3211C5.76024 136.768 0.439453 142.098 0.439453 148.65V291.234C0.439453 297.795 5.7603 303.116 12.3216 303.116H77.6714L109.753 358.739C111.995 361.731 115.519 363.492 119.258 363.492C122.998 363.492 126.896 361.978 128.764 358.74L160.845 303.116H229.974C236.535 303.116 241.783 297.794 241.856 291.233L241.856 291.209ZM212.045 272.549H154.904C151.164 272.549 145.331 274.056 143.508 277.301L119.258 320.465L94.6294 277.302C92.3878 274.31 87.3429 272.549 83.6129 272.549H31.006V166.957H212.045V272.549Z" fill="black"/>
<path d="M136.746 112.69V8.98391C136.746 4.38574 133.011 0.656921 128.419 0.656921H23.8847C19.2865 0.656921 15.5576 4.3865 15.5576 8.98391V113.446C15.5576 118.044 19.2869 121.773 23.8847 121.773C93.6204 121.773 58.6843 121.773 128.419 121.773C133.017 121.773 136.746 118.038 136.746 113.446V112.69ZM105.73 91.1342C39.9757 91.1342 111.572 91.1342 45.8181 91.1342V30.9176H105.73V91.1342Z" fill="black"/>
</svg>
