<svg width="10" height="20" viewBox="0 0 10 20" fill="none" xmlns="http://www.w3.org/2000/svg">
<path d="M1.8519 18.1818C1.61321 18.1818 1.38429 18.2776 1.21551 18.4481C1.04673 18.6186 0.951904 18.8498 0.951904 19.0909C0.951904 19.332 1.04673 19.5632 1.21551 19.7337C1.38429 19.9042 1.61321 20 1.8519 20H9.0519C9.2906 20 9.51952 19.9042 9.6883 19.7337C9.85708 19.5632 9.9519 19.332 9.9519 19.0909C9.9519 18.8498 9.85708 18.6186 9.6883 18.4481C9.51952 18.2776 9.2906 18.1818 9.0519 18.1818H6.3519V14.4545C7.36763 14.2435 8.28029 13.6853 8.93606 12.8739C9.59182 12.0624 9.9506 11.0475 9.9519 10V4.54545C9.9519 3.33992 9.4778 2.18377 8.63388 1.33133C7.78997 0.478895 6.64538 0 5.4519 0C4.25843 0 3.11384 0.478895 2.26992 1.33133C1.42601 2.18377 0.951904 3.33992 0.951904 4.54545V10C0.953213 11.0475 1.31199 12.0624 1.96775 12.8739C2.62352 13.6853 3.53618 14.2435 4.5519 14.4545V18.1818H1.8519ZM2.7519 10V4.54545C2.7519 3.82214 3.03637 3.12844 3.54272 2.61698C4.04906 2.10552 4.73582 1.81818 5.4519 1.81818C6.16799 1.81818 6.85474 2.10552 7.36109 2.61698C7.86744 3.12844 8.1519 3.82214 8.1519 4.54545V10C8.1519 10.7233 7.86744 11.417 7.36109 11.9285C6.85474 12.4399 6.16799 12.7273 5.4519 12.7273C4.73582 12.7273 4.04906 12.4399 3.54272 11.9285C3.03637 11.417 2.7519 10.7233 2.7519 10Z" fill="#1694da"/>
</svg>
