<svg width="166" height="364" viewBox="0 0 166 364" fill="none" xmlns="http://www.w3.org/2000/svg">
<path d="M17.2231 330.368C8.1163 330.368 0.730713 337.754 0.730713 346.861C0.730713 355.968 8.11629 363.353 17.2234 363.353L149.163 363.353C158.27 363.353 165.655 355.968 165.655 346.861C165.655 337.754 158.27 330.368 149.163 330.368H99.6855V262.749C138.041 254.861 165.615 221.095 165.655 181.933V82.9814C165.655 37.4464 128.728 0.518921 83.1932 0.518921C37.6582 0.518921 0.730713 37.4464 0.730713 82.9814V181.936C0.771154 221.095 28.3451 254.862 66.7001 262.748L66.7005 330.368H17.2231ZM33.7158 181.936V82.9814C33.7158 55.6604 55.8725 33.504 83.1932 33.504C110.514 33.504 132.67 55.6604 132.67 82.9814V181.936C132.67 209.257 110.514 231.413 83.1932 231.413C55.8725 231.413 33.7158 209.257 33.7158 181.936Z" fill="black"/>
</svg>
