<svg width="364" height="364" viewBox="0 0 364 364" fill="none" xmlns="http://www.w3.org/2000/svg">
<path fill-rule="evenodd" clip-rule="evenodd" d="M31.3455 226.65V181.6H17.0162C8.09313 181.6 0.792969 174.791 0.792969 166.469C0.792969 158.146 8.09313 151.338 17.0162 151.338H31.3455V136.585C31.3455 128.103 38.1086 121.163 46.3756 121.163C54.6425 121.163 61.4056 128.103 61.4056 136.585V151.338H75.4186C84.3417 151.338 91.6418 158.146 91.6418 166.469C91.6418 174.791 84.3417 181.6 75.4186 181.6H61.4056V226.65C61.4056 235.132 54.6425 242.072 46.3756 242.072C38.1086 242.072 31.3455 235.132 31.3455 226.65Z" fill="black"/>
<path fill-rule="evenodd" clip-rule="evenodd" d="M303.331 226.65V181.6H289.002C280.079 181.6 272.779 174.791 272.779 166.469C272.779 158.146 280.079 151.338 289.002 151.338H303.331V136.585C303.331 128.103 310.094 121.163 318.361 121.163C326.628 121.163 333.391 128.103 333.391 136.585V151.338H347.404C356.328 151.338 363.628 158.146 363.628 166.469C363.628 174.791 356.328 181.6 347.404 181.6H333.391V226.65C333.391 235.132 326.628 242.072 318.361 242.072C310.094 242.072 303.331 235.132 303.331 226.65Z" fill="black"/>
<path fill-rule="evenodd" clip-rule="evenodd" d="M167.338 105.705V60.6547H153.009C144.086 60.6547 136.786 53.8463 136.786 45.5237C136.786 37.2012 144.086 30.3928 153.009 30.3928H167.338V15.6405C167.338 7.15814 174.101 0.21814 182.368 0.21814C190.635 0.21814 197.398 7.15814 197.398 15.6405V30.3928H211.411C220.334 30.3928 227.635 37.2012 227.635 45.5237C227.635 53.8463 220.334 60.6547 211.411 60.6547H197.398V105.705C197.398 114.187 190.635 121.127 182.368 121.127C174.101 121.127 167.338 114.187 167.338 105.705Z" fill="black"/>
<path d="M182.21 272.39C215.627 272.39 242.804 245.214 242.804 211.797V166.351C242.804 157.989 236.017 151.203 227.655 151.203L136.764 151.203C128.403 151.203 121.616 157.99 121.616 166.351V211.797C121.616 245.214 148.793 272.39 182.21 272.39ZM151.913 181.5H212.507V211.797C212.507 228.505 198.919 242.094 182.21 242.094C165.501 242.094 151.913 228.505 151.913 211.797V181.5Z" fill="black"/>
<path d="M273.1 287.539H91.3199C82.9573 287.539 76.1711 294.325 76.1711 302.688V347.904C76.1711 356.266 82.9573 363.053 91.3199 363.053C99.6817 363.053 106.468 356.266 106.468 347.904V317.836H257.952V347.904C257.952 356.266 264.739 363.053 273.1 363.053C281.463 363.053 288.249 356.266 288.249 347.904V302.688C288.249 294.325 281.463 287.539 273.1 287.539Z" fill="black"/>
</svg>
