<svg width="17" height="17" viewBox="0 0 17 17" fill="none" xmlns="http://www.w3.org/2000/svg">
<path d="M16.3625 0C16.5316 0 16.6937 0.0684073 16.8133 0.190173C16.9328 0.311939 17 0.477089 17 0.649292V8.4408C17 8.613 16.9328 8.77815 16.8133 8.89991C16.6937 9.02168 16.5316 9.09009 16.3625 9.09009H10.2113L7.19844 11.5451C7.10466 11.6215 6.99159 11.6695 6.87224 11.6833C6.75288 11.6972 6.63212 11.6764 6.52385 11.6234C6.41558 11.5704 6.32421 11.4873 6.26028 11.3838C6.19635 11.2802 6.16245 11.1603 6.1625 11.038V9.09009H4.8875C4.71842 9.09009 4.55627 9.02168 4.43672 8.89991C4.31716 8.77815 4.25 8.613 4.25 8.4408V0.649292C4.25 0.477089 4.31716 0.311939 4.43672 0.190173C4.55627 0.0684073 4.71842 0 4.8875 0H16.3625ZM5.525 7.7915H6.8C6.96908 7.7915 7.13123 7.85991 7.25078 7.98168C7.37034 8.10344 7.4375 8.26859 7.4375 8.4408V9.68679L9.58906 7.9337C9.70216 7.84158 9.84268 7.79144 9.9875 7.7915H15.725V1.29858H5.525V7.7915Z" fill="black"/>
<path d="M12.75 13.7535V5.96181C12.75 5.7896 12.6828 5.62445 12.5633 5.50268C12.4437 5.38091 12.2816 5.3125 12.1125 5.3125H0.6375C0.468425 5.3125 0.306274 5.38091 0.186719 5.50268C0.067165 5.62445 0 5.7896 0 5.96181V13.7535C0 13.9257 0.067165 14.0908 0.186719 14.2126C0.306274 14.3344 0.468425 14.4028 0.6375 14.4028H4.14375L5.865 16.7403C5.92438 16.8209 6.00138 16.8864 6.0899 16.9314C6.17842 16.9765 6.27603 17 6.375 17C6.47397 17 6.57158 16.9765 6.6601 16.9314C6.74862 16.8864 6.82562 16.8209 6.885 16.7403L8.60625 14.4028H12.1125C12.2816 14.4028 12.4437 14.3344 12.5633 14.2126C12.6828 14.0908 12.75 13.9257 12.75 13.7535ZM11.475 13.1042H8.2875C8.18853 13.1042 8.09092 13.1276 8.0024 13.1727C7.91388 13.2178 7.83688 13.2832 7.7775 13.3639L6.375 15.2683L4.9725 13.3639C4.91312 13.2832 4.83612 13.2178 4.7476 13.1727C4.65908 13.1276 4.56147 13.1042 4.4625 13.1042H1.275V6.61111H11.475V13.1042Z" fill="black"/>
</svg>
