<svg width="363" height="364" viewBox="0 0 363 364" fill="none" xmlns="http://www.w3.org/2000/svg">
<path d="M350.004 0.589233H194.221C187.04 0.589233 181.236 6.40631 181.236 13.5734V199.471C181.236 206.638 187.04 212.456 194.221 212.456H226.361V244.225C226.361 249.47 229.517 254.21 234.373 256.222C235.983 256.884 237.671 257.209 239.346 257.209C242.722 257.209 246.046 256.641 248.526 254.16L310.246 212.456H350.004C357.184 212.456 362.988 206.638 362.988 199.471V13.5734C362.988 6.40631 357.184 0.589233 350.004 0.589233ZM332.486 181.572H312.824C309.369 181.572 306.071 182.179 303.644 184.619L251.951 218.93V199.471C251.951 192.304 246.147 181.572 238.967 181.572H211.742V30.7174H332.486V181.572Z" fill="black"/>
<path d="M106.094 212.667C139.511 212.667 166.688 185.491 166.688 152.073V106.628C166.688 98.2659 159.901 91.4797 151.539 91.4797L60.6485 91.4801C52.2866 91.4801 45.5005 98.2663 45.5005 106.628V152.074C45.5005 185.491 72.6768 212.667 106.094 212.667ZM75.7972 121.776H136.391V152.073C136.391 168.782 122.803 182.37 106.094 182.37C89.3853 182.37 75.7972 168.782 75.7972 152.073V121.776Z" fill="black"/>
<path d="M196.984 227.815H15.2039C6.84132 227.815 0.0551758 234.602 0.0551758 242.964V348.276C0.0551758 356.637 6.84132 363.424 15.2039 363.424C23.5657 363.424 30.3519 356.637 30.3519 348.276V258.112H181.836V348.276C181.836 356.637 188.623 363.424 196.984 363.424C205.347 363.424 212.133 356.637 212.133 348.276V242.964C212.133 234.602 205.347 227.815 196.984 227.815Z" fill="black"/>
<path fill-rule="evenodd" clip-rule="evenodd" d="M257.24 151.466V106.416H242.911C233.987 106.416 226.687 99.6076 226.687 91.2851C226.687 82.9625 233.987 76.1541 242.911 76.1541H257.24V61.4019C257.24 52.9195 264.003 45.9795 272.27 45.9795C280.537 45.9795 287.3 52.9195 287.3 61.4019V76.1541H301.313C310.236 76.1541 317.536 82.9625 317.536 91.2851C317.536 99.6076 310.236 106.416 301.313 106.416H287.3V151.466C287.3 159.948 280.537 166.888 272.27 166.888C264.003 166.888 257.24 159.948 257.24 151.466Z" fill="black"/>
</svg>
