<svg width="364" height="364" viewBox="0 0 364 364" fill="none" xmlns="http://www.w3.org/2000/svg">
<path d="M259.777 287.936H104.277C97.1237 287.936 91.3184 293.742 91.3184 300.895V348.949C91.3184 356.102 99.012 363.797 106.165 363.797C113.318 363.797 121.392 356.102 121.392 348.949V318.766H242.282V348.949C242.282 356.102 250.354 363.797 257.508 363.797C264.661 363.797 272.736 356.102 272.736 348.949V300.895C272.736 293.742 266.93 287.936 259.777 287.936Z" fill="black"/>
<path d="M348.217 242.529H257.4C250.247 242.529 242.552 250.98 242.552 258.133C242.552 265.286 250.247 273.358 257.4 273.358H332.99V303.436C332.99 310.589 341.064 318.283 348.217 318.283C355.37 318.283 363.444 310.589 363.444 303.436V258.133C363.444 250.98 355.37 242.529 348.217 242.529Z" fill="#332D2B"/>
<path d="M182.223 273.088C215.64 273.088 234.871 245.911 234.871 212.494V182.538C234.871 174.176 228.084 167.39 219.722 167.39L144.332 167.39C135.97 167.39 129.184 174.176 129.184 182.538V212.494C129.184 245.911 148.805 273.088 182.223 273.088ZM159.481 197.686H204.574V212.494C204.574 229.202 198.932 242.792 182.223 242.792C165.514 242.792 159.481 229.202 159.481 212.494V197.686Z" fill="black"/>
<path d="M295.592 227.908C329.009 227.908 348.239 200.73 348.239 167.313V137.357C348.239 128.995 341.453 122.209 333.091 122.209L257.701 122.209C249.339 122.209 242.552 128.995 242.552 137.357V167.313C242.552 200.73 262.174 227.908 295.592 227.908ZM272.849 152.506H317.942V167.313C317.942 184.021 312.3 197.611 295.592 197.611C278.883 197.611 272.849 184.021 272.849 167.313V152.506Z" fill="#332D2B"/>
<path d="M348.217 242.529H257.4C250.247 242.529 242.552 250.98 242.552 258.133C242.552 265.286 250.247 273.358 257.4 273.358H332.99V303.436C332.99 310.589 341.064 318.283 348.217 318.283C355.37 318.283 363.444 310.589 363.444 303.436V258.133C363.444 250.98 355.37 242.529 348.217 242.529Z" fill="black"/>
<path d="M295.592 227.908C329.009 227.908 348.239 200.73 348.239 167.313V137.357C348.239 128.995 341.453 122.209 333.091 122.209L257.701 122.209C249.339 122.209 242.552 128.995 242.552 137.357V167.313C242.552 200.73 262.174 227.908 295.592 227.908ZM272.849 152.506H317.942V167.313C317.942 184.021 312.3 197.611 295.592 197.611C278.883 197.611 272.849 184.021 272.849 167.313V152.506Z" fill="black"/>
<path d="M15.8366 242.529H106.654C113.807 242.529 121.502 250.98 121.502 258.133C121.502 265.286 113.807 273.358 106.654 273.358H31.0639V303.436C31.0639 310.589 22.9897 318.283 15.8366 318.283C8.68345 318.283 0.609619 310.589 0.609619 303.436V258.133C0.609619 250.98 8.68383 242.529 15.8366 242.529Z" fill="black"/>
<path d="M68.462 227.908C35.0449 227.908 15.8147 200.73 15.8147 167.313V137.357C15.8147 128.995 22.6008 122.209 30.963 122.209L106.353 122.209C114.715 122.209 121.502 128.995 121.502 137.357V167.313C121.502 200.73 101.88 227.908 68.462 227.908ZM91.2046 152.506H46.1114V167.313C46.1114 184.021 51.7535 197.611 68.462 197.611C85.1709 197.611 91.2046 184.021 91.2046 167.313V152.506Z" fill="black"/>
<path d="M136.672 0.971566H13.3882C6.2079 0.971566 0.404053 6.78826 0.404053 13.9558V93.6565C0.404053 100.824 7.72046 106.642 14.9008 106.642C23.1428 106.642 50.0066 95.4715 60.7041 91.6712L123.822 91.9002C131.003 91.9002 136.806 86.0835 136.806 78.9156L136.482 23.1162L151.413 16.0806C151.413 8.52154 145.984 0.962495 136.672 0.971566ZM106.306 61.0154H60.4978L30.4679 71.5263L30.9098 31.0993H106.305L106.306 61.0154Z" fill="black" stroke="black" stroke-width="0.288" stroke-miterlimit="22.9256"/>
<path d="M275.247 16.0783H119.463C112.283 16.0783 106.479 21.8954 106.479 29.0625V94.0156C106.479 101.183 112.283 107 119.463 107H151.604V138.769C151.604 144.015 154.76 148.754 159.616 150.767C161.226 151.429 162.914 151.753 164.589 151.753C167.965 151.753 171.289 151.185 173.769 148.705L235.489 107H275.247C282.427 107 288.231 101.183 288.231 94.0156V29.0625C288.231 21.8954 282.427 16.0783 275.247 16.0783ZM257.729 76.1161H238.067C234.612 76.1161 231.314 76.7231 228.886 79.1643L177.194 113.474V94.0156C177.194 86.8484 171.39 76.1161 164.21 76.1161H136.985V46.206H257.729V76.1161Z" fill="black"/>
</svg>
