<svg width="100" height="31" viewBox="0 0 100 31" fill="none" xmlns="http://www.w3.org/2000/svg">
<path d="M77.5488 26.4046C82.7118 26.4046 86.8973 22.1211 86.8973 16.8372C86.8973 11.5532 82.7118 7.26974 77.5488 7.26974C72.3857 7.26974 68.2002 11.5532 68.2002 16.8372C68.2002 22.1211 72.3857 26.4046 77.5488 26.4046Z" fill="currentColor"/>
<path d="M0 24.7096V3.61604H6.99301C8.50202 3.61604 9.86382 3.84204 11.1152 4.25638C12.3298 4.67072 13.3235 5.38639 14.0596 6.36574C14.7589 7.34508 15.127 8.66343 15.127 10.3961C15.127 12.0158 14.7589 13.3341 14.0596 14.3888C13.3235 15.4435 12.3298 16.2345 11.1152 16.7242C9.90063 17.2139 8.57563 17.4775 7.10342 17.4775H4.52705V24.7096H0ZM64.0044 10.0194V20.4909C64.0044 21.9599 64.1516 22.9016 64.4829 23.3159C64.9246 23.8056 65.4766 24.0693 66.1759 24.0693H67.6113V24.7096H58.2628V24.0693H58.9621C59.4038 24.0693 59.8086 23.9563 60.2135 23.7303C60.5447 23.5043 60.8392 23.2029 60.9864 22.7886C61.0968 22.4119 61.2072 21.6209 61.2072 20.4909V10.0194H58.1524V8.77643H61.2072V7.72175C61.2072 6.1774 61.428 4.82139 61.9433 3.69137C62.201 3.16403 62.4954 2.67436 62.9003 2.22236C63.3051 1.77035 63.7468 1.35601 64.2253 1.05468C64.7405 0.715674 65.2558 0.452005 65.8447 0.301337C66.4336 0.113001 67.0593 0 67.6849 0C68.1266 0 68.6051 0.0753341 69.0835 0.226002C69.5988 0.376671 70.0405 0.602673 70.4821 0.866343C70.9238 1.13001 71.2551 1.43135 71.5495 1.80802C71.8071 2.14702 71.9544 2.52369 71.9544 2.93803C71.9544 3.12637 71.9175 3.3147 71.8439 3.46537C71.7703 3.65371 71.6599 3.80437 71.5127 3.91738C71.4023 4.06804 71.2183 4.18105 71.071 4.25638C70.887 4.36938 70.7398 4.40705 70.5558 4.40705C70.4085 4.40705 70.2981 4.36938 70.1509 4.33171C70.0405 4.29405 69.8933 4.25638 69.746 4.14338C69.5988 4.03038 69.4516 3.87971 69.2676 3.65371C69.0835 3.46537 68.8995 3.2017 68.6787 2.90036C68.4579 2.56136 68.2738 2.29769 68.0898 2.07169C67.9058 1.88335 67.6849 1.69502 67.5009 1.58202C67.3169 1.46902 67.1329 1.39368 66.9488 1.31835C66.7648 1.28068 66.5808 1.28068 66.36 1.28068C65.8447 1.28068 65.403 1.39368 65.035 1.69502C64.6669 1.95869 64.4093 2.41069 64.262 3.01337C64.078 3.65371 64.0044 5.16039 64.0044 7.64642V8.77643H68.0162V10.0194H64.0044ZM93.8535 8.32442V11.9028C95.1785 9.52977 96.5035 8.32442 97.8285 8.32442C98.1597 8.32442 98.4174 8.36209 98.675 8.47509C98.9326 8.58809 99.1903 8.73876 99.3743 8.9271C99.5583 9.07776 99.7056 9.30377 99.816 9.52977C99.9264 9.75577 100 10.0194 100 10.2454C100 10.6974 99.8528 11.1118 99.5583 11.4131C99.2639 11.7145 98.8958 11.9028 98.491 11.9028C98.307 11.9028 98.0861 11.8275 97.8653 11.6768C97.6445 11.5638 97.3868 11.4131 97.166 11.2625C96.9452 11.1495 96.7243 10.9988 96.5403 10.8858C96.3195 10.7351 96.1722 10.6598 96.0986 10.6598C95.9514 10.6598 95.7674 10.7351 95.5834 10.8858C95.4361 10.9988 95.2153 11.1871 95.0313 11.4508C94.8473 11.6768 94.6632 11.9405 94.4424 12.2795C94.2584 12.6185 94.0375 12.9951 93.8535 13.3718V20.9806C93.8535 21.4702 93.8903 21.8846 93.9271 22.2612C94.0007 22.6379 94.1112 22.9769 94.2952 23.2406C94.4792 23.5043 94.7736 23.7303 95.1417 23.8433C95.5098 23.9939 95.9882 24.0693 96.5771 24.0693V24.7096H88.5904V24.0693C89.1056 24.0693 89.5105 24.0316 89.8049 23.9563C90.1362 23.9186 90.3938 23.7679 90.5778 23.5419C90.7251 23.3536 90.8723 23.0522 90.9459 22.6756C91.0195 22.2612 91.0195 21.7716 91.0195 21.1312V14.9538C91.0195 13.0705 90.9827 11.9781 90.9091 11.6768C90.7619 10.9611 90.3938 10.6221 89.7681 10.6221C89.4369 10.6221 89.032 10.7351 88.5904 10.8858L88.4431 10.2831L93.1542 8.32442H93.8535ZM21.3471 8.70109V10.7728C21.8255 10.0948 22.3776 9.52977 22.9665 9.11543C23.7762 8.58809 24.5491 8.32442 25.3957 8.32442C25.8373 8.32442 26.2054 8.32442 26.463 8.39976C26.7575 8.43742 27.0151 8.55043 27.2359 8.66343L26.4998 12.5808C26.2054 12.5055 25.9109 12.4678 25.6533 12.3925C25.4325 12.3548 25.138 12.3548 24.8068 12.3548C24.2179 12.3548 23.5922 12.5808 22.9297 13.0328C22.304 13.4471 21.7887 14.2382 21.3471 15.2928V24.7096H16.8568V8.70109H21.3471ZM40.6699 15.4435H40.7067V24.7096H36.29V23.3159C35.7011 23.7679 35.1123 24.1823 34.4498 24.5213C33.6768 24.8979 32.8303 25.0863 31.947 25.0863C31.0269 25.0863 30.2171 24.8979 29.5178 24.4459C28.8186 24.0316 28.2665 23.4666 27.8984 22.7509C27.5304 21.9976 27.3463 21.1689 27.3463 20.2649C27.3463 18.5699 28.0456 17.2515 29.4442 16.3098C30.8428 15.4058 33.088 14.7278 36.1796 14.3888C36.1428 13.8991 36.0692 13.4848 35.8852 13.1458C35.7011 12.7691 35.4435 12.5055 35.0755 12.2795C34.7074 12.0911 34.2657 12.0158 33.6768 12.0158C32.9775 12.0158 32.3151 12.1288 31.6158 12.3925C30.9533 12.6561 30.2171 12.9951 29.481 13.4471L27.8984 10.3961C28.5609 9.98177 29.2234 9.64277 29.9227 9.30377C30.622 9.00243 31.3581 8.77643 32.131 8.58809C32.9039 8.39976 33.6768 8.32442 34.5234 8.32442C35.8484 8.32442 36.9893 8.58809 37.8727 9.11543C38.7928 9.64277 39.4921 10.4338 39.9706 11.4885C40.449 12.5431 40.6699 13.8615 40.6699 15.4435ZM4.52705 13.8238H6.84579C8.13397 13.8238 9.12771 13.5225 9.7534 12.9198C10.4159 12.3548 10.7471 11.4885 10.7471 10.3961C10.7471 9.2661 10.3791 8.43742 9.7166 7.98542C9.0173 7.53341 8.02355 7.30741 6.73537 7.30741H4.52705V13.8238ZM33.4928 21.5079C34.0081 21.5079 34.4866 21.3949 34.9282 21.1312C35.3331 20.8676 35.7747 20.5286 36.1796 20.1142V17.2139C35.0386 17.3645 34.1553 17.5529 33.456 17.8165C32.7935 18.0802 32.3151 18.3815 32.0574 18.7582C31.763 19.0972 31.6158 19.5115 31.6158 19.9259C31.6158 20.4909 31.7998 20.8676 32.131 21.1312C32.4623 21.3949 32.9407 21.5079 33.4928 21.5079ZM44.7184 31C44.24 31 43.8351 30.9623 43.4671 30.9247C43.1358 30.8493 42.8046 30.774 42.5101 30.6987L43.3198 27.158C43.4671 27.1956 43.6511 27.2333 43.8351 27.271C44.0191 27.3463 44.2032 27.384 44.3872 27.384C45.1601 27.384 45.749 27.158 46.1907 26.7436C46.6323 26.3669 46.9636 25.8396 47.1476 25.1993L47.4052 24.2953L41.3692 8.70109H45.8962L49.5767 17.7412L52.6316 8.70109H56.9378L51.4906 24.9733C51.0121 26.2916 50.4601 27.384 49.8712 28.288C49.2823 29.1543 48.583 29.8323 47.7733 30.322C46.9636 30.774 45.933 31 44.7184 31Z" fill="currentColor"/>
</svg>
