<svg width="363" height="363" viewBox="0 0 363 363" fill="none" xmlns="http://www.w3.org/2000/svg">
<path d="M106.152 212.235C139.569 212.235 166.745 185.058 166.745 151.641V106.196C166.745 97.8336 159.959 91.0475 151.597 91.0475L60.706 91.0479C52.3442 91.0479 45.5581 97.834 45.5581 106.196V151.642C45.5581 185.059 72.7344 212.235 106.152 212.235ZM75.8548 121.344H136.449V151.641C136.449 168.35 122.86 181.938 106.152 181.938C89.4429 181.938 75.8548 168.35 75.8548 151.641V121.344Z" fill="black"/>
<path d="M197.042 227.383H15.2615C6.89896 227.383 0.112793 234.169 0.112793 242.532V347.843C0.112793 356.205 6.89896 362.992 15.2615 362.992C23.6234 362.992 30.4095 356.205 30.4095 347.843V257.68H181.894V347.843C181.894 356.205 188.68 362.992 197.042 362.992C205.405 362.992 212.191 356.205 212.191 347.843V242.532C212.191 234.169 205.405 227.383 197.042 227.383Z" fill="black"/>
<path fill-rule="evenodd" clip-rule="evenodd" d="M224.473 39.9777L355.4 115.568C362.601 119.726 365.091 129.019 360.933 136.22C356.776 143.421 347.483 145.911 340.282 141.754L209.355 66.163C202.155 62.0056 199.664 52.7121 203.821 45.5117C207.979 38.3106 217.273 35.8202 224.473 39.9777Z" fill="black"/>
<path fill-rule="evenodd" clip-rule="evenodd" d="M209.355 115.568L340.282 39.9777C347.483 35.8203 356.776 38.3106 360.933 45.511C365.091 52.7121 362.601 62.0056 355.4 66.1631L224.474 141.754C217.272 145.911 207.979 143.421 203.821 136.22C199.664 129.019 202.154 119.726 209.355 115.568Z" fill="black"/>
<path fill-rule="evenodd" clip-rule="evenodd" d="M297.495 15.2751V166.456C297.495 174.771 290.692 181.574 282.377 181.574C274.062 181.574 267.259 174.771 267.259 166.456V15.2751C267.259 6.96014 274.062 0.156982 282.377 0.156982C290.692 0.156982 297.495 6.96014 297.495 15.2751Z" fill="black"/>
</svg>
