<svg width="15" height="15" viewBox="0 0 15 15" fill="none" xmlns="http://www.w3.org/2000/svg">
<path d="M14.1997 0H8.13654C7.84749 0 7.61385 0.236032 7.61385 0.526852V6.67419C7.61385 6.96503 7.84749 7.20105 8.13654 7.20105H10.0182V8.78162C10.0182 8.99446 10.1452 9.18677 10.3407 9.26843C10.4055 9.29528 10.4735 9.30846 10.5409 9.30846C10.6768 9.30846 10.8106 9.25473 10.9105 9.1541L12.8481 7.20105H14.1997C14.4888 7.20105 14.7224 6.96503 14.7224 6.67419V0.526852C14.7224 0.236032 14.4888 0 14.1997 0ZM13.677 6.14734H12.6317C12.4926 6.14734 12.3599 6.20266 12.2621 6.3017L11.0636 7.50978V6.67419C11.0636 6.38337 10.83 6.14734 10.5409 6.14734H8.65922V1.05372H13.677V6.14734Z" fill="black"/>
<path d="M4.26864 8.60529C5.61386 8.60529 6.70785 7.50258 6.70785 6.14664V4.30265C6.70785 3.96334 6.43467 3.68798 6.09804 3.68798L2.43921 3.688C2.1026 3.688 1.82942 3.96336 1.82942 4.30265V6.14665C1.82942 7.50259 2.92341 8.60529 4.26864 8.60529ZM3.04902 4.9173H5.48825V6.14664C5.48825 6.82461 4.94125 7.37596 4.26864 7.37596C3.59602 7.37596 3.04902 6.82461 3.04902 6.14664V4.9173Z" fill="black"/>
<path d="M7.92745 9.21996H0.609812C0.273186 9.21996 0 9.49532 0 9.83463V14.1078C0 14.4471 0.273186 14.7224 0.609812 14.7224C0.946425 14.7224 1.21961 14.4471 1.21961 14.1078V10.4493H7.31766V14.1078C7.31766 14.4471 7.59084 14.7224 7.92745 14.7224C8.26408 14.7224 8.53726 14.4471 8.53726 14.1078V9.83463C8.53726 9.49532 8.26408 9.21996 7.92745 9.21996Z" fill="black"/>
<path fill-rule="evenodd" clip-rule="evenodd" d="M10.5824 5.24608V2.16926C10.5824 1.87947 10.8176 1.64239 11.1051 1.64239C11.3926 1.64239 11.6278 1.87947 11.6278 2.16926V5.24608C11.6278 5.53587 11.3926 5.77293 11.1051 5.77293C10.8176 5.77293 10.5824 5.53587 10.5824 5.24608Z" fill="black"/>
<path fill-rule="evenodd" clip-rule="evenodd" d="M10.1643 2.59072H12.046C12.3335 2.59072 12.5687 2.82779 12.5687 3.11758C12.5687 3.40737 12.3335 3.64445 12.046 3.64445H10.1643C9.87681 3.64445 9.6416 3.40737 9.6416 3.11758C9.6416 2.82779 9.87681 2.59072 10.1643 2.59072Z" fill="black"/>
</svg>
