<svg width="20" height="19" viewBox="0 0 20 19" fill="none" xmlns="http://www.w3.org/2000/svg">
<path d="M19.0792 8.63331L1.66249 0.383311L1.24999 0.291644C1.00687 0.291644 0.773716 0.388222 0.601808 0.56013C0.429899 0.732038 0.333322 0.965196 0.333322 1.20831L3.08332 9.45831L0.333322 17.7083C0.333322 17.9514 0.429899 18.1846 0.601808 18.3565C0.773716 18.5284 1.00687 18.625 1.24999 18.625L1.66249 18.5333L19.0792 10.2833C19.2341 10.2083 19.3648 10.0911 19.4563 9.94514C19.5478 9.79923 19.5963 9.63051 19.5963 9.45831C19.5963 9.28611 19.5478 9.11739 19.4563 8.97148C19.3648 8.82557 19.2341 8.70837 19.0792 8.63331ZM2.85416 15.9208L4.68749 10.375H9.49999C9.7431 10.375 9.97626 10.2784 10.1482 10.1065C10.3201 9.93458 10.4167 9.70143 10.4167 9.45831C10.4167 9.2152 10.3201 8.98204 10.1482 8.81013C9.97626 8.63822 9.7431 8.54164 9.49999 8.54164H4.68749L2.85416 2.99581L16.5125 9.45831L2.85416 15.9208Z" fill="#1694da"/>
</svg>
