<svg width="364" height="364" viewBox="0 0 364 364" fill="none" xmlns="http://www.w3.org/2000/svg">
<path d="M361.828 189.358C363.077 187.371 363.815 184.944 363.815 182.351C363.815 179.757 363.077 177.343 361.792 175.296L361.828 175.356C361.471 174.749 361.126 174.238 360.745 173.75L360.769 173.786C359.579 172.156 358.116 170.799 356.415 169.788L356.344 169.753C356.046 169.575 355.904 169.217 355.583 169.063L22.4884 2.51566C20.5495 1.52845 18.265 0.945679 15.8503 0.945679C7.63021 0.945679 0.980225 7.60753 0.980225 15.8159C0.980225 17.9336 1.42003 19.9439 2.21713 21.7641L2.1817 21.6689L71.0488 182.363L2.1817 343.057C1.4205 344.782 0.980225 346.793 0.980225 348.91C0.980225 357.119 7.64193 363.78 15.8503 363.78C15.8503 363.78 15.8503 363.78 15.8624 363.78L15.8621 363.78C15.8738 363.78 15.8858 363.78 15.8975 363.78C18.3127 363.78 20.5846 363.197 22.5953 362.162L22.5122 362.198L355.606 195.663C355.927 195.508 356.058 195.151 356.368 194.973C358.128 193.926 359.603 192.57 360.757 190.975L360.781 190.928C361.138 190.476 361.495 189.952 361.804 189.417L361.84 189.346L361.828 189.358ZM45.5075 47.2695L285.954 167.481H97.0421L45.5075 47.2695ZM97.0421 197.221H285.954L45.5075 317.432L97.0421 197.221Z" fill="black"/>
</svg>
