<svg width="17" height="17" viewBox="0 0 17 17" fill="none" xmlns="http://www.w3.org/2000/svg">
<path d="M10.9286 8.5C10.9286 8.16486 10.6566 7.89286 10.3214 7.89286H6.67857C6.34343 7.89286 6.07143 8.16486 6.07143 8.5V10.3214C6.07143 11.6608 7.16064 12.75 8.5 12.75C9.83936 12.75 10.9286 11.6608 10.9286 10.3214V8.5ZM9.71429 10.3214C9.71429 10.9911 9.16968 11.5357 8.5 11.5357C7.83032 11.5357 7.28571 10.9911 7.28571 10.3214V9.10714H9.71429V10.3214Z" fill="black"/>
<path d="M13.9643 10.3214C15.3036 10.3214 16.3929 9.23221 16.3929 7.89286V6.07143C16.3929 5.73629 16.1209 5.46429 15.7857 5.46429H12.1429C11.8077 5.46429 11.5357 5.73629 11.5357 6.07143V7.89286C11.5357 9.23221 12.6249 10.3214 13.9643 10.3214ZM12.75 6.67857H15.1786V7.89286C15.1786 8.56254 14.634 9.10714 13.9643 9.10714C13.2946 9.10714 12.75 8.56254 12.75 7.89286V6.67857Z" fill="black"/>
<path d="M1.21429 5.46429C0.879143 5.46429 0.607143 5.73629 0.607143 6.07143V7.89286C0.607143 9.23221 1.69636 10.3214 3.03571 10.3214C4.37507 10.3214 5.46429 9.23221 5.46429 7.89286V6.07143C5.46429 5.73629 5.19229 5.46429 4.85714 5.46429H1.21429ZM4.25 7.89286C4.25 8.56254 3.70539 9.10714 3.03571 9.10714C2.36604 9.10714 1.82143 8.56254 1.82143 7.89286V6.67857H4.25V7.89286Z" fill="black"/>
<path d="M12.1429 13.3571H4.85714C4.522 13.3571 4.25 13.6291 4.25 13.9643V16.3929C4.25 16.728 4.522 17 4.85714 17C5.19229 17 5.46429 16.728 5.46429 16.3929V14.5714H11.5357V16.3929C11.5357 16.728 11.8077 17 12.1429 17C12.478 17 12.75 16.728 12.75 16.3929V13.9643C12.75 13.6291 12.478 13.3571 12.1429 13.3571Z" fill="black"/>
<path d="M16.3929 10.9286H11.5357C11.2006 10.9286 10.9286 11.2006 10.9286 11.5357C10.9286 11.8709 11.2006 12.1429 11.5357 12.1429H15.7857V13.3571C15.7857 13.6923 16.0577 13.9643 16.3929 13.9643C16.728 13.9643 17 13.6923 17 13.3571V11.5357C17 11.2006 16.728 10.9286 16.3929 10.9286Z" fill="black"/>
<path d="M0.607143 13.9643C0.942286 13.9643 1.21429 13.6923 1.21429 13.3571V12.1429H5.46429C5.79943 12.1429 6.07143 11.8709 6.07143 11.5357C6.07143 11.2006 5.79943 10.9286 5.46429 10.9286H0.607143C0.272 10.9286 0 11.2006 0 11.5357V13.3571C0 13.6923 0.272 13.9643 0.607143 13.9643Z" fill="black"/>
<path d="M12.1429 4.85714V2.42857C12.1429 2.09343 11.8709 1.82143 11.5357 1.82143H7.89286V0.607143C7.89286 0.272 7.62086 0 7.28571 0H2.42857C2.09343 0 1.82143 0.272 1.82143 0.607143V3.03571C1.82143 3.37086 2.09343 3.64286 2.42857 3.64286H3.26764L3.70721 4.52139C3.79889 4.70475 3.97679 4.82921 4.18018 4.85289C4.20325 4.85593 4.22693 4.85714 4.25 4.85714C4.42911 4.85714 4.60032 4.77821 4.71629 4.63857L5.54625 3.64286H6.07143V4.85714C6.07143 5.19229 6.34343 5.46429 6.67857 5.46429H8.41804L9.248 6.46C9.36397 6.59964 9.53518 6.67857 9.71429 6.67857C9.73736 6.67857 9.76104 6.67736 9.78411 6.67432C9.9875 6.65064 10.1654 6.52618 10.2571 6.34282L10.6966 5.46429H11.5357C11.8709 5.46429 12.1429 5.19229 12.1429 4.85714ZM5.26211 2.42857C5.08179 2.42857 4.91118 2.50871 4.79582 2.64714L4.3775 3.14804L4.18625 2.76432C4.08304 2.5585 3.87296 2.42857 3.64286 2.42857H3.03571V1.21429H6.67857V1.82143C6.34343 1.82143 6.07143 2.09343 6.07143 2.42857H5.26211ZM10.9286 4.25H10.3214C10.0913 4.25 9.88125 4.37993 9.77804 4.58575L9.58618 4.96946L9.16907 4.46857C9.05371 4.33014 8.8825 4.25 8.70218 4.25H7.28571V3.03571H10.9286V4.25Z" fill="black"/>
</svg>
